<?xml version="1.0" encoding="utf-8"?>
<!-- Generator: Adobe Illustrator 21.0.2, SVG Export Plug-In . SVG Version: 6.00 Build 0)  -->
<svg version="1.1" id="Calque_1" xmlns="http://www.w3.org/2000/svg" xmlns:xlink="http://www.w3.org/1999/xlink" x="0px" y="0px"
	 viewBox="0 0 347.2 195.1" style="enable-background:new 0 0 347.2 195.1;" xml:space="preserve">
<style type="text/css">
	.st0{fill:#FFFFFF;}
</style>
<g>
	<path class="st0" d="M173.5,75c16.3,0,29.5-13.2,29.5-29.5c0-16.3-13.2-29.5-29.5-29.5C157.2,16,144,29.3,144,45.5
		C144,61.8,157.2,75,173.5,75z M173.5,18.3c15,0,27.2,12.2,27.2,27.2c0,15-12.2,27.2-27.2,27.2c-15,0-27.2-12.2-27.2-27.2
		C146.3,30.5,158.5,18.3,173.5,18.3z"/>
	<polygon class="st0" points="181.3,56.7 171.1,56.7 171.1,29.8 168.3,29.8 168.3,59 181.3,59 	"/>
	<polygon class="st0" points="62.8,87.3 58.6,87.3 58.6,108 72.7,108 72.7,104.6 62.8,104.6 	"/>
	<polygon class="st0" points="88.8,104.6 79.4,104.6 79.4,99.1 88.2,99.1 88.2,95.8 79.4,95.8 79.4,90.7 88.6,90.7 88.6,87.3 
		75.1,87.3 75.1,108 88.8,108 	"/>
	<path class="st0" d="M96,98.9c1.3,0.7,2.5,1.2,3.3,1.7c1,0.6,1.5,1.3,1.5,2.2c0,0.7-0.3,1.2-0.8,1.6c-0.6,0.4-1.3,0.6-2.3,0.6
		c-1.9,0-3.9-0.9-6.1-2.7l-0.2-0.2v4.2l0.1,0c1.2,0.7,2.2,1.2,3.2,1.5c0.9,0.3,2.1,0.4,3.4,0.4c2,0,3.7-0.6,5-1.6
		c1.3-1.1,1.9-2.6,1.9-4.3c0-1.4-0.4-2.6-1.1-3.6c-0.7-1-2-1.9-3.7-2.7c-1.9-0.9-3.1-1.4-3.4-1.6c-1-0.6-1.5-1.3-1.5-2
		c0-0.6,0.3-1.1,0.8-1.4c0.5-0.4,1.3-0.6,2.3-0.6c1.6,0,3.5,0.6,5.5,1.9l0.2,0.1v-3.8l-0.1,0c-1.8-1-3.8-1.5-5.8-1.5
		c-2.1,0-3.8,0.5-5.1,1.6c-1.3,1-2,2.5-2,4.2c0,1.3,0.4,2.5,1.2,3.5C93.2,97.3,94.4,98.2,96,98.9z"/>
	<polygon class="st0" points="132.6,108 136.2,108 136.2,87.3 132,87.3 132,101.3 120.2,87.4 120.1,87.3 116.5,87.3 116.5,108 
		120.6,108 120.6,93.8 132.5,107.9 	"/>
	<path class="st0" d="M145.1,106.9c1.7,0.9,3.7,1.4,5.8,1.4c2.2,0,4.1-0.5,5.8-1.4c1.7-0.9,3.1-2.2,4.1-3.8c1-1.6,1.5-3.4,1.5-5.4
		c0-2-0.5-3.8-1.5-5.5c-1-1.7-2.4-2.9-4.1-3.8c-1.7-0.9-3.6-1.3-5.8-1.3c-2.2,0-4.2,0.5-5.9,1.4c-1.7,0.9-3.1,2.2-4,3.9
		c-1,1.7-1.5,3.5-1.5,5.3c0,2,0.5,3.8,1.5,5.4C142,104.7,143.4,105.9,145.1,106.9z M147.3,91.6c1.1-0.6,2.3-0.9,3.7-0.9
		c1.4,0,2.6,0.3,3.7,0.9c1.1,0.6,1.9,1.4,2.5,2.5c0.6,1.1,0.9,2.3,0.9,3.6c0,2-0.7,3.7-2,5c-1.3,1.3-3,1.9-5.1,1.9
		c-1.4,0-2.6-0.3-3.6-0.9c-1.1-0.6-1.9-1.4-2.5-2.5c-0.6-1.1-0.9-2.3-0.9-3.6c0-1.3,0.3-2.5,0.9-3.6C145.3,93,146.2,92.2,147.3,91.6
		z"/>
	<path class="st0" d="M165.6,87.3v12.4c0,1.7,0.4,3.3,1.1,4.5c0.7,1.3,1.8,2.3,3.2,3c1.4,0.7,3.1,1,5,1c3,0,5.4-0.8,7.1-2.2
		c1.7-1.5,2.5-3.7,2.5-6.4V87.3h-4.2v11.7c0,1.3-0.2,2.4-0.6,3.1c-0.4,0.7-1,1.3-1.8,1.8c-0.8,0.4-1.8,0.6-3,0.6
		c-1.1,0-2-0.2-2.8-0.7c-0.8-0.5-1.4-1-1.7-1.7c-0.4-0.7-0.5-1.7-0.5-2.8v-12H165.6z"/>
	<polygon class="st0" points="196.5,100.2 190.8,87.3 186.4,87.3 195.7,108.2 195.8,108.3 197.3,108.3 206.4,87.5 206.4,87.3 
		202,87.3 	"/>
	<polygon class="st0" points="222.2,104.6 212.7,104.6 212.7,99.1 221.6,99.1 221.6,95.8 212.7,95.8 212.7,90.7 221.9,90.7 
		221.9,87.3 208.5,87.3 208.5,108 222.2,108 	"/>
	<path class="st0" d="M229.8,103h8.9l2.1,4.9l0,0.1h4.5l-9.1-20.6l0-0.1h-4.2l-8.5,20.7h4.4L229.8,103z M231.1,99.8l2.9-7.6l3.2,7.6
		H231.1z"/>
	<path class="st0" d="M265.7,87.3h-4.2v11.7c0,1.3-0.2,2.4-0.6,3.1c-0.4,0.7-1,1.3-1.8,1.8c-0.8,0.4-1.8,0.6-3,0.6
		c-1.1,0-2-0.2-2.8-0.7c-0.8-0.5-1.4-1-1.7-1.7c-0.4-0.7-0.5-1.7-0.5-2.8v-12h-4.2v12.4c0,1.7,0.4,3.3,1.1,4.5
		c0.7,1.3,1.8,2.3,3.2,3c1.4,0.7,3.1,1,5,1c3,0,5.4-0.8,7.1-2.2c1.7-1.5,2.5-3.7,2.5-6.4V87.3z"/>
	<polygon class="st0" points="281.7,97.3 289.8,87.3 284.5,87.3 279.1,94.2 273.6,87.4 273.5,87.3 268.2,87.3 276.4,97.3 
		267.8,107.8 267.6,108 272.9,108 279.1,100.5 285.1,107.9 285.2,108 290.5,108 	"/>
	<polygon class="st0" points="103.6,121.1 99.4,121.1 99.4,141.7 103.6,141.7 103.6,133.1 113.9,133.1 113.9,141.7 118.1,141.7 
		118.1,121.1 113.9,121.1 113.9,129.7 103.6,129.7 	"/>
	<polygon class="st0" points="136.5,138.4 127,138.4 127,132.9 135.9,132.9 135.9,129.5 127,129.5 127,124.4 136.3,124.4 
		136.3,121.1 122.8,121.1 122.8,141.7 136.5,141.7 	"/>
	<polygon class="st0" points="126.4,119.9 128.9,119.9 134.6,114.7 129.3,114.7 	"/>
	<path class="st0" d="M153.5,130c0.6-0.9,0.9-1.9,0.9-3.1c0-1.7-0.6-3.2-1.9-4.2c-1.2-1.1-2.8-1.6-4.8-1.6h-7.5v20.7h4.2v-8.6h1.3
		c0.6,0,1.1,0.2,1.6,0.5c0.5,0.3,1,0.8,1.5,1.6c0.5,0.7,1.4,2.2,2.5,4.4c0.5,1,0.9,1.7,1.2,2.2l0,0.1h4.7l-0.1-0.2
		c-0.6-0.9-1.5-2.6-2.8-5.1c-0.7-1.4-1.4-2.5-1.9-3.1c-0.5-0.5-1-1-1.5-1.3C152.1,131.5,152.9,130.9,153.5,130z M144.5,124.4h2.3
		c1,0,1.9,0.2,2.4,0.7c0.5,0.4,0.8,1.1,0.8,2c0,0.9-0.3,1.5-0.8,2c-0.6,0.5-1.3,0.7-2.3,0.7h-2.4V124.4z"/>
	<rect x="160.1" y="121.1" class="st0" width="4.2" height="20.7"/>
	<polygon class="st0" points="179,141.7 179,124.4 186.3,124.4 186.3,121.1 167.6,121.1 167.6,124.4 174.8,124.4 174.8,141.7 	"/>
	<rect x="189.5" y="121.1" class="st0" width="4.2" height="20.7"/>
	<polygon class="st0" points="211.9,124.4 211.9,121.1 198.5,121.1 198.5,141.7 212.1,141.7 212.1,138.4 202.7,138.4 202.7,132.9 
		211.5,132.9 211.5,129.5 202.7,129.5 202.7,124.4 	"/>
	<path class="st0" d="M229.2,130c0.6-0.9,0.9-1.9,0.9-3.1c0-1.7-0.6-3.2-1.9-4.2c-1.2-1.1-2.8-1.6-4.8-1.6H216v20.7h4.2v-8.6h1.3
		c0.6,0,1.1,0.2,1.6,0.5c0.5,0.3,1,0.8,1.5,1.6c0.5,0.7,1.4,2.2,2.5,4.4c0.5,1,0.9,1.7,1.2,2.2l0,0.1h4.7l-0.1-0.2
		c-0.6-0.9-1.5-2.6-2.8-5.1c-0.7-1.4-1.4-2.5-1.9-3.1c-0.5-0.5-1-1-1.5-1.3C227.8,131.5,228.6,130.9,229.2,130z M220.2,124.4h2.3
		c1,0,1.9,0.2,2.4,0.7c0.5,0.4,0.8,1.1,0.8,2c0,0.9-0.3,1.5-0.8,2c-0.6,0.5-1.3,0.7-2.3,0.7h-2.4V124.4z"/>
	<path class="st0" d="M243.4,129.8c-1.9-0.9-3.1-1.4-3.4-1.6c-1-0.6-1.5-1.3-1.5-2c0-0.6,0.3-1.1,0.8-1.4c0.5-0.4,1.3-0.6,2.3-0.6
		c1.6,0,3.5,0.6,5.5,1.9l0.2,0.1v-3.8l-0.1,0c-1.8-1-3.8-1.5-5.8-1.5c-2.1,0-3.8,0.5-5.1,1.6c-1.3,1-2,2.5-2,4.2
		c0,1.3,0.4,2.5,1.2,3.5c0.8,1,2,1.9,3.6,2.6c1.3,0.6,2.5,1.2,3.3,1.7c1,0.6,1.5,1.3,1.5,2.2c0,0.7-0.3,1.2-0.8,1.6
		c-0.6,0.4-1.3,0.6-2.3,0.6c-1.9,0-3.9-0.9-6.1-2.7l-0.2-0.2v4.2l0.1,0c1.2,0.7,2.2,1.2,3.2,1.5c0.9,0.3,2.1,0.4,3.4,0.4
		c2,0,3.7-0.6,5-1.6c1.3-1.1,1.9-2.6,1.9-4.3c0-1.4-0.4-2.6-1.1-3.6C246.3,131.5,245.1,130.6,243.4,129.8z"/>
</g>
<g>
	<path class="st0" d="M79.3,159H74l-0.7,2.5c-0.2,0.6-0.3,1.1-0.3,1.3c0,0.2,0.1,0.4,0.9,0.4v0.3c-0.4,0-1,0-1.8,0
		c-0.6,0-1.1,0-1.6,0v-0.3c0.7-0.1,1-0.2,1.3-1.3l1.7-6.2c0.1-0.3,0.2-0.7,0.2-1c0-0.3-0.1-0.4-1.1-0.4v-0.3c0.3,0,1,0,1.7,0
		c0.9,0,1.2,0,1.8,0v0.3c-0.9,0-1.1,0.3-1.4,1.3l-0.7,2.8h5.3l0.7-2.8c0.1-0.3,0.2-0.7,0.2-1c0-0.3-0.1-0.4-1.1-0.4v-0.3
		c0.3,0,1,0,1.7,0c0.9,0,1.2,0,1.8,0v0.3c-0.9,0-1.1,0.3-1.4,1.3l-1.5,5.9c-0.2,0.6-0.3,1.1-0.3,1.3c0,0.2,0.1,0.4,0.9,0.4v0.3
		c-0.4,0-1,0-1.8,0c-0.6,0-1.1,0-1.6,0v-0.3c0.7-0.1,1-0.2,1.3-1.3L79.3,159z"/>
	<path class="st0" d="M88.9,157.7c0.1,0,0.2,0,0.2,0.1c0,0.4-1.5,4-1.5,4.6c0,0.1,0.1,0.2,0.2,0.2c0.4,0,1-0.9,1.1-0.9
		c0.1,0,0.2,0,0.2,0.1c0,0.2-1.5,1.9-2.2,1.9c-0.3,0-0.5-0.2-0.5-0.4c0-0.9,0.9-2.6,0.9-2.7c0-0.1,0-0.1-0.1-0.1
		c-0.1,0-2.5,3.2-3.8,3.2c-0.4,0-0.6-0.3-0.6-0.8c0-1.3,1.6-3.8,1.6-4c0-0.1-0.1-0.2-0.2-0.2c-0.3,0-1.1,0.9-1.3,0.9
		c-0.1,0-0.1,0-0.1-0.1c0-0.2,1.6-1.7,2.5-1.7c0.3,0,0.4,0.1,0.4,0.4c0,0.5-1.9,3.4-1.9,4.2c0,0.3,0.2,0.4,0.4,0.4
		c1.1,0,2.7-2.5,4.1-4.7c0.1-0.2,0.2-0.3,0.4-0.3H88.9z"/>
	<path class="st0" d="M99.8,162c-1,1.1-2.2,1.7-2.7,1.7c-0.1,0-0.3-0.1-0.3-0.3c0-0.3,1.8-3.9,1.8-4.4c0-0.4-0.1-0.6-0.4-0.6
		c-1.7,0-3.5,4.6-3.7,5c-0.1,0.1-0.1,0.2-0.2,0.2h-0.5c-0.1,0-0.2,0-0.2-0.2c0-0.2,1.3-3,1.3-4.4c0-0.4-0.1-0.6-0.4-0.6
		c-0.9,0-2.6,2.2-3.7,4.9c-0.1,0.2-0.1,0.2-0.3,0.2h-0.4c-0.1,0-0.1-0.1-0.1-0.1c0-0.2,1.5-4,1.5-4.7c0-0.1,0-0.1-0.1-0.1
		c-0.2,0-1.3,1.1-1.5,1.1c-0.1,0-0.1,0-0.1-0.1c0-0.2,1.8-1.9,2.5-1.9c0.3,0,0.5,0.2,0.5,0.4c0,0.4-1,2.4-0.9,2.4
		c0.1,0,0.4-0.6,1-1.4c0.6-0.7,1.3-1.5,2.1-1.5c0.6,0,0.9,0.4,0.9,1c0,0.7-0.6,2.2-0.5,2.2c0.1,0,1.5-3.2,3.3-3.2
		c0.6,0,0.9,0.4,0.9,1.1c0,1.1-1.4,3.5-1.4,3.8c0,0.1,0,0.1,0.1,0.1c0.3,0,1.2-0.8,1.3-0.9L99.8,162z"/>
	<path class="st0" d="M103.5,163.1c0-0.6,0.6-1.6,0.6-1.7c0-0.1,0-0.1-0.1-0.1c-0.1,0-0.2,0.3-0.5,0.6c-0.9,1.4-1.6,1.7-2.2,1.7
		c-0.5,0-0.9-0.4-0.9-1.2c0-1.2,1.3-4.7,4-4.7c0.4,0,0.6,0.1,0.8,0.1c0.2,0,0.3-0.3,0.4-0.3c0.1,0,0.5,0.1,0.5,0.4
		c0,0.3-1.6,4.2-1.6,4.7c0,0.2,0.1,0.3,0.2,0.3c0.3,0,1-1.1,1.2-1.1c0.1,0,0.1,0,0.1,0.1c0,0.1-1.2,1.8-2.1,1.8
		C103.7,163.7,103.5,163.5,103.5,163.1z M104.8,158.9c0-0.4-0.2-0.8-0.7-0.8c-1.4,0-2.8,2.5-2.8,4.2c0,0.5,0.2,0.6,0.4,0.6
		C103,162.8,104.8,159.6,104.8,158.9z"/>
	<path class="st0" d="M113.3,162.1c-0.8,0.9-2,1.6-2.6,1.6c-0.2,0-0.4-0.1-0.4-0.3c0-0.3,1.8-3.6,1.8-4.4c0-0.4-0.2-0.5-0.5-0.5
		c-1,0-2.6,2.2-3.3,4.2c-0.2,0.6-0.3,0.8-0.4,0.9c0,0-0.2,0-0.4,0c-0.4,0-0.4,0-0.4-0.1c0-0.5,1.6-3.9,1.6-4.7
		c0-0.1-0.1-0.2-0.1-0.2c-0.3,0-1.3,1.1-1.4,1.1c-0.1,0-0.1,0-0.1-0.1c0-0.2,1.8-1.8,2.4-1.8c0.3,0,0.4,0.2,0.4,0.4
		c0,0.4-0.5,1.6-0.5,1.7c0,0,0,0.1,0,0.1c0,0,0.1,0,0.3-0.2c0.3-0.4,1.4-1.9,2.5-1.9c0.6,0,1,0.4,1,1c0,1.1-1.4,3.5-1.4,3.9
		c0,0.1,0.1,0.2,0.1,0.2c0.3,0,0.9-0.6,1.2-0.9L113.3,162.1z"/>
	<path class="st0" d="M120.3,156.4c0.3-1.1,0.3-1.3,0.3-1.6c0-0.3-0.2-0.5-1.2-0.5v-0.3h3.9c2.3,0,3.3,0.4,3.3,1.9
		c0,1.8-2.2,2.6-3.6,3.1c0.6,0.6,1.5,2.5,1.9,3.2c0.4,0.7,0.6,1,1.5,1.1v0.2h-2.2l-2.4-4.3l-1.2,0.2l-0.6,2.6c0,0.2-0.1,0.4-0.1,0.6
		c0,0.3,0.3,0.6,1,0.6v0.3h-3.4v-0.3c0.9-0.1,1-0.3,1.4-1.8L120.3,156.4z M120.9,159.1c3-0.5,4.7-1.4,4.7-3c0-1.2-0.6-1.7-2.4-1.7
		c-0.7,0-1,0.1-1.2,0.9L120.9,159.1z"/>
	<path class="st0" d="M129.3,163c0.8,0,1.7-0.9,1.8-0.9c0.1,0,0.1,0,0.1,0.1c0,0.1-1.3,1.5-2.5,1.5c-0.9,0-1.5-0.6-1.5-1.6
		c0-2.1,2.4-4.4,4.1-4.4c0.7,0,1.2,0.5,1.2,0.9c0,1.1-1.9,1.5-2.8,1.5c-0.3,0-0.5,0-0.7,0c-0.3,0.4-0.6,1-0.6,1.8
		C128.4,162.6,128.7,163,129.3,163z M131.1,158c-0.8,0-1.7,1.5-1.9,1.8c1.4,0,2.4-0.4,2.4-1.3C131.6,158.2,131.4,158,131.1,158z"/>
	<path class="st0" d="M135.6,161.8c0,1-1.1,1.9-2.2,1.9c-0.7,0-1.2-0.4-1.2-0.7c0-0.1,0-0.6,0.3-0.6c0.4,0,0.8,0.8,1.5,0.8
		c0.4,0,0.8-0.3,0.8-0.7c0-0.8-1.1-1.4-1.1-2.4c0-1.1,1.2-2.4,2.2-2.4c0.5,0,0.8,0.3,0.8,0.6c0,0.2-0.2,0.5-0.5,0.5
		c-0.4,0-0.8-0.4-1.2-0.4c-0.4,0-0.7,0.4-0.7,0.7C134.3,160,135.6,160.7,135.6,161.8z"/>
	<path class="st0" d="M142.6,159.9c0,1.7-1.5,3.8-3.6,3.8c-1,0-2-0.7-2-2.2c0-1.7,1.5-3.8,3.6-3.8
		C141.6,157.7,142.6,158.4,142.6,159.9z M137.9,161.9c0,1,0.4,1.5,1,1.5c1,0,2.6-2.1,2.6-4c0-1-0.4-1.5-1-1.5
		C139.6,158,137.9,160.1,137.9,161.9z"/>
	<path class="st0" d="M149.9,157.7c0.1,0,0.2,0,0.2,0.1c0,0.4-1.5,4-1.5,4.6c0,0.1,0.1,0.2,0.2,0.2c0.4,0,1-0.9,1.1-0.9
		c0.1,0,0.2,0,0.2,0.1c0,0.2-1.5,1.9-2.2,1.9c-0.3,0-0.5-0.2-0.5-0.4c0-0.9,0.9-2.6,0.9-2.7c0-0.1,0-0.1-0.1-0.1
		c-0.1,0-2.5,3.2-3.8,3.2c-0.4,0-0.6-0.3-0.6-0.8c0-1.3,1.6-3.8,1.6-4c0-0.1-0.1-0.2-0.2-0.2c-0.3,0-1.1,0.9-1.3,0.9
		c-0.1,0-0.1,0-0.1-0.1c0-0.2,1.6-1.7,2.5-1.7c0.3,0,0.4,0.1,0.4,0.4c0,0.5-1.9,3.4-1.9,4.2c0,0.3,0.2,0.4,0.4,0.4
		c1.1,0,2.7-2.5,4.1-4.7c0.1-0.2,0.2-0.3,0.4-0.3H149.9z"/>
	<path class="st0" d="M151.1,163.6c-0.1,0-0.1,0-0.1-0.2c0-0.2,1.4-3.7,1.4-4.5c0-0.2-0.1-0.4-0.2-0.4c-0.3,0-0.7,0.6-0.9,0.9
		c-0.1,0.1-0.2,0.2-0.2,0.2s-0.1-0.1-0.1-0.1c0-0.3,1.3-1.8,1.9-1.8c0.3,0,0.4,0.1,0.4,0.4c0,0.3-0.5,2.1-0.5,2.3
		c0,0.1,0,0.1,0.1,0.1c0,0,0.1-0.1,0.2-0.2c0.4-0.7,1.5-2.6,2.1-2.6c0.3,0,0.5,0.3,0.5,0.7c0,0.5-0.2,0.7-0.4,0.7
		c-0.5,0-0.3-0.6-0.6-0.6c-0.3,0-1,0.9-2.3,3.9l-0.4,0.9c-0.1,0.2-0.1,0.2-0.2,0.2H151.1z"/>
	<path class="st0" d="M157.8,163.1c0.5,0,1-0.4,1.3-0.6c0.2-0.1,0.4-0.4,0.5-0.4c0.1,0,0.1,0,0.1,0.1c0,0.1-1.1,1.4-2.4,1.4
		c-1.2,0-1.6-0.9-1.6-1.7c0-2.3,2.8-4.3,4.4-4.3c0.8,0,1.1,0.5,1.1,0.9c0,0.2-0.2,0.4-0.4,0.4c-0.5,0-0.6-1-1.2-1
		c-0.9,0-2.9,2.6-2.9,4C156.8,162.8,157.3,163.1,157.8,163.1z"/>
	<path class="st0" d="M163.4,163c0.8,0,1.7-0.9,1.8-0.9c0.1,0,0.1,0,0.1,0.1c0,0.1-1.3,1.5-2.5,1.5c-0.9,0-1.5-0.6-1.5-1.6
		c0-2.1,2.4-4.4,4.1-4.4c0.7,0,1.2,0.5,1.2,0.9c0,1.1-1.9,1.5-2.8,1.5c-0.3,0-0.5,0-0.7,0c-0.3,0.4-0.6,1-0.6,1.8
		C162.4,162.6,162.8,163,163.4,163z M165.2,158c-0.8,0-1.7,1.5-1.9,1.8c1.4,0,2.4-0.4,2.4-1.3C165.7,158.2,165.5,158,165.2,158z"/>
	<path class="st0" d="M169.6,161.8c0,1-1.1,1.9-2.2,1.9c-0.7,0-1.2-0.4-1.2-0.7c0-0.1,0-0.6,0.3-0.6c0.4,0,0.8,0.8,1.5,0.8
		c0.4,0,0.8-0.3,0.8-0.7c0-0.8-1.1-1.4-1.1-2.4c0-1.1,1.2-2.4,2.2-2.4c0.5,0,0.8,0.3,0.8,0.6c0,0.2-0.2,0.5-0.5,0.5
		c-0.4,0-0.8-0.4-1.2-0.4c-0.4,0-0.7,0.4-0.7,0.7C168.4,160,169.6,160.7,169.6,161.8z"/>
	<path class="st0" d="M174.8,158.2c-0.1,0-0.2,0-0.2-0.1c0-0.2,0.1-0.4,0.2-0.4h1.2c0.2,0,0.2,0,0.5-0.8c0.4-1.1,1.2-3,3.2-3
		c0.8,0,1.3,0.3,1.3,0.7c0,0.3-0.2,0.5-0.5,0.5c-0.5,0-0.9-0.7-1.5-0.7c-0.6,0-1,0.6-1.6,2.6c-0.1,0.3-0.2,0.6-0.2,0.6
		c0,0,0,0.1,0,0.1h1.3c0.1,0,0.1,0.1,0.1,0.2c0,0.1,0,0.3-0.2,0.3h-1.3c-0.1,0-0.2,0-0.2,0.2l-1.2,4.4c-0.5,2-1.5,4.3-3.3,4.3
		c-0.7,0-1-0.3-1-0.6c0-0.3,0.2-0.5,0.5-0.5c0.5,0,0.9,0.5,1.4,0.5c0.3,0,0.7-0.3,1.3-3l1.2-4.9c0.1-0.2,0.1-0.3,0.1-0.4
		c0,0,0-0.1-0.1-0.1H174.8z"/>
	<path class="st0" d="M184.2,159.9c0,1.7-1.5,3.8-3.6,3.8c-1,0-2-0.7-2-2.2c0-1.7,1.5-3.8,3.6-3.8
		C183.2,157.7,184.2,158.4,184.2,159.9z M179.5,161.9c0,1,0.4,1.5,1,1.5c1,0,2.6-2.1,2.6-4c0-1-0.4-1.5-1-1.5
		C181.2,158,179.5,160.1,179.5,161.9z"/>
	<path class="st0" d="M185.2,163.6c-0.1,0-0.1,0-0.1-0.2c0-0.2,1.4-3.7,1.4-4.5c0-0.2-0.1-0.4-0.2-0.4c-0.3,0-0.7,0.6-0.9,0.9
		c-0.1,0.1-0.2,0.2-0.2,0.2s-0.1-0.1-0.1-0.1c0-0.3,1.3-1.8,1.9-1.8c0.3,0,0.4,0.1,0.4,0.4c0,0.3-0.5,2.1-0.5,2.3
		c0,0.1,0,0.1,0.1,0.1c0,0,0.1-0.1,0.2-0.2c0.4-0.7,1.5-2.6,2.1-2.6c0.3,0,0.5,0.3,0.5,0.7c0,0.5-0.2,0.7-0.4,0.7
		c-0.5,0-0.3-0.6-0.6-0.6c-0.3,0-1,0.9-2.3,3.9l-0.4,0.9c-0.1,0.2-0.1,0.2-0.2,0.2H185.2z"/>
	<path class="st0" d="M194.2,156c0.3-0.7,0.8-2.2,1.2-2.2c0.4,0,0.3,0.5,1.7,0.5h4.1c0.9,0,1.3-0.1,1.7-0.3c0.1-0.1,0.2-0.1,0.3-0.1
		c0.1,0,0.1,0.1,0.1,0.2c0,0.2-0.1,1.1-0.4,2.2c0,0.2-0.1,0.3-0.3,0.3c-0.2,0-0.2,0-0.2-0.3c0-1.2-0.5-1.5-1.8-1.5
		c-0.6,0-0.8,0.1-1,1l-1.4,5.2c-0.2,0.8-0.4,1.6-0.4,1.9c0,0.3,0.4,0.4,1.3,0.5v0.3c-0.9,0-1.4,0-2.2,0c-0.6,0-1.1,0-2,0v-0.3
		c1.1-0.1,1.4-0.2,1.7-1.2l1.6-6c0.1-0.3,0.2-0.8,0.2-1.1c0-0.3-0.1-0.4-1.1-0.4c-1.1,0-1.7,0.1-2.7,1.3L194.2,156z"/>
	<path class="st0" d="M201.8,163.6c-0.1,0-0.1,0-0.1-0.2c0-0.2,1.4-3.7,1.4-4.5c0-0.2-0.1-0.4-0.2-0.4c-0.3,0-0.7,0.6-0.9,0.9
		c-0.1,0.1-0.2,0.2-0.2,0.2c-0.1,0-0.1-0.1-0.1-0.1c0-0.3,1.3-1.8,1.9-1.8c0.3,0,0.4,0.1,0.4,0.4c0,0.3-0.5,2.1-0.5,2.3
		c0,0.1,0,0.1,0.1,0.1c0,0,0.1-0.1,0.2-0.2c0.4-0.7,1.5-2.6,2.1-2.6c0.3,0,0.5,0.3,0.5,0.7c0,0.5-0.2,0.7-0.4,0.7
		c-0.5,0-0.3-0.6-0.6-0.6c-0.3,0-1,0.9-2.3,3.9l-0.4,0.9c-0.1,0.2-0.1,0.2-0.2,0.2H201.8z"/>
	<path class="st0" d="M209.1,163.1c0-0.6,0.6-1.6,0.6-1.7c0-0.1,0-0.1-0.1-0.1c-0.1,0-0.2,0.3-0.5,0.6c-0.9,1.4-1.6,1.7-2.2,1.7
		c-0.5,0-0.9-0.4-0.9-1.2c0-1.2,1.3-4.7,4-4.7c0.4,0,0.6,0.1,0.8,0.1c0.2,0,0.3-0.3,0.4-0.3c0.1,0,0.5,0.1,0.5,0.4
		c0,0.3-1.6,4.2-1.6,4.7c0,0.2,0.1,0.3,0.2,0.3c0.3,0,1-1.1,1.2-1.1c0.1,0,0.1,0,0.1,0.1c0,0.1-1.2,1.8-2.1,1.8
		C209.2,163.7,209.1,163.5,209.1,163.1z M210.4,158.9c0-0.4-0.2-0.8-0.7-0.8c-1.4,0-2.8,2.5-2.8,4.2c0,0.5,0.2,0.6,0.4,0.6
		C208.5,162.8,210.4,159.6,210.4,158.9z"/>
	<path class="st0" d="M218.9,162.1c-0.8,0.9-2,1.6-2.6,1.6c-0.2,0-0.4-0.1-0.4-0.3c0-0.3,1.8-3.6,1.8-4.4c0-0.4-0.2-0.5-0.5-0.5
		c-1,0-2.6,2.2-3.3,4.2c-0.2,0.6-0.3,0.8-0.4,0.9c0,0-0.2,0-0.4,0c-0.4,0-0.4,0-0.4-0.1c0-0.5,1.6-3.9,1.6-4.7
		c0-0.1-0.1-0.2-0.1-0.2c-0.3,0-1.3,1.1-1.4,1.1c-0.1,0-0.1,0-0.1-0.1c0-0.2,1.8-1.8,2.4-1.8c0.3,0,0.4,0.2,0.4,0.4
		c0,0.4-0.5,1.6-0.5,1.7c0,0,0,0.1,0,0.1c0,0,0.1,0,0.3-0.2c0.3-0.4,1.4-1.9,2.5-1.9c0.6,0,1,0.4,1,1c0,1.1-1.4,3.5-1.4,3.9
		c0,0.1,0.1,0.2,0.1,0.2c0.3,0,0.9-0.6,1.2-0.9L218.9,162.1z"/>
	<path class="st0" d="M222.6,161.8c0,1-1.1,1.9-2.2,1.9c-0.7,0-1.2-0.4-1.2-0.7c0-0.1,0-0.6,0.3-0.6c0.4,0,0.8,0.8,1.5,0.8
		c0.4,0,0.8-0.3,0.8-0.7c0-0.8-1.1-1.4-1.1-2.4c0-1.1,1.2-2.4,2.2-2.4c0.5,0,0.8,0.3,0.8,0.6c0,0.2-0.2,0.5-0.5,0.5
		c-0.4,0-0.8-0.4-1.2-0.4c-0.4,0-0.7,0.4-0.7,0.7C221.3,160,222.6,160.7,222.6,161.8z"/>
	<path class="st0" d="M224.4,158.2c-0.1,0-0.2,0-0.2-0.1c0-0.2,0.1-0.4,0.2-0.4h1.2c0.2,0,0.2,0,0.5-0.8c0.4-1.1,1.2-3,3.2-3
		c0.8,0,1.3,0.3,1.3,0.7c0,0.3-0.2,0.5-0.5,0.5c-0.5,0-0.9-0.7-1.5-0.7c-0.6,0-1,0.6-1.6,2.6c-0.1,0.3-0.2,0.6-0.2,0.6
		c0,0,0,0.1,0,0.1h1.3c0.1,0,0.1,0.1,0.1,0.2c0,0.1,0,0.3-0.2,0.3h-1.3c-0.1,0-0.2,0-0.2,0.2l-1.2,4.4c-0.5,2-1.5,4.3-3.3,4.3
		c-0.7,0-1-0.3-1-0.6c0-0.3,0.2-0.5,0.5-0.5c0.5,0,0.9,0.5,1.4,0.5c0.3,0,0.7-0.3,1.3-3l1.2-4.9c0.1-0.2,0.1-0.3,0.1-0.4
		c0,0,0-0.1-0.1-0.1H224.4z"/>
	<path class="st0" d="M233.8,159.9c0,1.7-1.5,3.8-3.6,3.8c-1,0-2-0.7-2-2.2c0-1.7,1.5-3.8,3.6-3.8
		C232.8,157.7,233.8,158.4,233.8,159.9z M229.1,161.9c0,1,0.4,1.5,1,1.5c1,0,2.6-2.1,2.6-4c0-1-0.4-1.5-1-1.5
		C230.8,158,229.1,160.1,229.1,161.9z"/>
	<path class="st0" d="M234.8,163.6c-0.1,0-0.1,0-0.1-0.2c0-0.2,1.4-3.7,1.4-4.5c0-0.2-0.1-0.4-0.2-0.4c-0.3,0-0.7,0.6-0.9,0.9
		c-0.1,0.1-0.2,0.2-0.2,0.2s-0.1-0.1-0.1-0.1c0-0.3,1.3-1.8,1.9-1.8c0.3,0,0.4,0.1,0.4,0.4c0,0.3-0.5,2.1-0.5,2.3
		c0,0.1,0,0.1,0.1,0.1c0,0,0.1-0.1,0.2-0.2c0.4-0.7,1.5-2.6,2.1-2.6c0.3,0,0.5,0.3,0.5,0.7c0,0.5-0.2,0.7-0.4,0.7
		c-0.5,0-0.3-0.6-0.6-0.6c-0.3,0-1,0.9-2.3,3.9l-0.4,0.9c-0.1,0.2-0.1,0.2-0.2,0.2H234.8z"/>
	<path class="st0" d="M249.4,162c-1,1.1-2.2,1.7-2.7,1.7c-0.1,0-0.3-0.1-0.3-0.3c0-0.3,1.8-3.9,1.8-4.4c0-0.4-0.1-0.6-0.4-0.6
		c-1.7,0-3.5,4.6-3.7,5c-0.1,0.1-0.1,0.2-0.2,0.2h-0.5c-0.1,0-0.2,0-0.2-0.2c0-0.2,1.3-3,1.3-4.4c0-0.4-0.1-0.6-0.4-0.6
		c-0.9,0-2.6,2.2-3.7,4.9c-0.1,0.2-0.1,0.2-0.3,0.2h-0.4c-0.1,0-0.1-0.1-0.1-0.1c0-0.2,1.5-4,1.5-4.7c0-0.1,0-0.1-0.1-0.1
		c-0.2,0-1.3,1.1-1.5,1.1c-0.1,0-0.1,0-0.1-0.1c0-0.2,1.8-1.9,2.5-1.9c0.3,0,0.5,0.2,0.5,0.4c0,0.4-1,2.4-0.9,2.4
		c0.1,0,0.4-0.6,1-1.4c0.6-0.7,1.3-1.5,2.1-1.5c0.6,0,0.9,0.4,0.9,1c0,0.7-0.6,2.2-0.5,2.2c0.1,0,1.5-3.2,3.3-3.2
		c0.6,0,0.9,0.4,0.9,1.1c0,1.1-1.4,3.5-1.4,3.8c0,0.1,0,0.1,0.1,0.1c0.3,0,1.2-0.8,1.3-0.9L249.4,162z"/>
	<path class="st0" d="M253.1,163.1c0-0.6,0.6-1.6,0.6-1.7c0-0.1,0-0.1-0.1-0.1c-0.1,0-0.2,0.3-0.5,0.6c-0.9,1.4-1.6,1.7-2.2,1.7
		c-0.5,0-0.9-0.4-0.9-1.2c0-1.2,1.3-4.7,4-4.7c0.4,0,0.6,0.1,0.8,0.1c0.2,0,0.3-0.3,0.4-0.3c0.1,0,0.5,0.1,0.5,0.4
		c0,0.3-1.6,4.2-1.6,4.7c0,0.2,0.1,0.3,0.2,0.3c0.3,0,1-1.1,1.2-1.1c0.1,0,0.1,0,0.1,0.1c0,0.1-1.2,1.8-2.1,1.8
		C253.3,163.7,253.1,163.5,253.1,163.1z M254.5,158.9c0-0.4-0.2-0.8-0.7-0.8c-1.4,0-2.8,2.5-2.8,4.2c0,0.5,0.2,0.6,0.4,0.6
		C252.6,162.8,254.5,159.6,254.5,158.9z"/>
	<path class="st0" d="M258.5,157.8c0.1,0,0.2,0,0.2-0.2l0.4-1c0,0,0.1-0.1,0.4-0.1c0.2,0,0.3-0.1,0.4-0.1c0,0,0.1,0,0.1,0.1
		c0,0-0.1,0.2-0.1,0.3l-0.3,0.7c0,0.1,0,0.1,0,0.1c0,0,0,0,0.1,0h0.5c0.1,0,0.2,0.1,0.2,0.4c0,0.2-0.1,0.4-0.2,0.4h-0.7
		c-0.2,0-0.3,0.1-0.3,0.3l-1.2,3.1c-0.1,0.2-0.2,0.5-0.2,0.6c0,0.1,0.1,0.2,0.3,0.2c0.3,0,1.6-1.1,1.7-1.1c0.1,0,0.1,0.1,0.1,0.1
		c0,0.1-0.2,0.3-1,1c-0.6,0.5-1.4,0.9-1.8,0.9c-0.3,0-0.5-0.2-0.5-0.4c0-0.2,0.2-0.7,0.3-1.1l1.2-3.3c0-0.1,0.1-0.2,0.1-0.3
		c0-0.1-0.1-0.1-0.2-0.1h-0.6c-0.1,0-0.1,0-0.1-0.1s0-0.1,0.1-0.1l0.2-0.5H258.5z"/>
	<path class="st0" d="M261.2,159.3L261.2,159.3c0.5-0.5,1.4-1.6,2.1-1.6c0.3,0,0.4,0.2,0.4,0.4c0,1.1-1.6,4.2-1.6,4.6
		c0,0.1,0,0.2,0.2,0.2c0.3,0,1-0.7,1.3-1l0.2,0.1c-0.6,0.6-1.3,1.6-2.3,1.6c-0.3,0-0.4-0.1-0.4-0.3c0-0.9,1.6-3.9,1.6-4.5
		c0-0.1-0.1-0.2-0.2-0.2c-0.3,0-0.9,0.6-1,0.8L261.2,159.3z M264,154.1c0.3,0,0.6,0.3,0.6,0.6c0,0.3-0.3,0.6-0.6,0.6
		c-0.3,0-0.6-0.3-0.6-0.6C263.4,154.3,263.6,154.1,264,154.1z"/>
	<path class="st0" d="M270.3,159.9c0,1.7-1.5,3.8-3.6,3.8c-1,0-2-0.7-2-2.2c0-1.7,1.5-3.8,3.6-3.8
		C269.3,157.7,270.3,158.4,270.3,159.9z M265.7,161.9c0,1,0.4,1.5,1,1.5c1,0,2.6-2.1,2.6-4c0-1-0.4-1.5-1-1.5
		C267.3,158,265.7,160.1,265.7,161.9z"/>
	<path class="st0" d="M277.3,162.1c-0.8,0.9-2,1.6-2.6,1.6c-0.2,0-0.4-0.1-0.4-0.3c0-0.3,1.8-3.6,1.8-4.4c0-0.4-0.2-0.5-0.5-0.5
		c-1,0-2.6,2.2-3.3,4.2c-0.2,0.6-0.3,0.8-0.4,0.9c0,0-0.2,0-0.4,0c-0.4,0-0.4,0-0.4-0.1c0-0.5,1.6-3.9,1.6-4.7
		c0-0.1-0.1-0.2-0.1-0.2c-0.3,0-1.3,1.1-1.4,1.1c-0.1,0-0.1,0-0.1-0.1c0-0.2,1.8-1.8,2.4-1.8c0.3,0,0.4,0.2,0.4,0.4
		c0,0.4-0.5,1.6-0.5,1.7c0,0,0,0.1,0,0.1c0,0,0.1,0,0.3-0.2c0.3-0.4,1.4-1.9,2.5-1.9c0.6,0,1,0.4,1,1c0,1.1-1.4,3.5-1.4,3.9
		c0,0.1,0.1,0.2,0.1,0.2c0.3,0,0.9-0.6,1.2-0.9L277.3,162.1z"/>
</g>
</svg>
