<svg xmlns="http://www.w3.org/2000/svg" style="display: none;">
  <defs>

    <symbol id="icon-circle-check">
        <path d="M32,0C14.327,0,0,14.327,0,32s14.327,32,32,32s32-14.327,32-32S49.673,0,32,0z M32,62C15.432,62,2,48.568,2,32.001      C2,15.432,15.432,2,32,2c16.568,0,30,13.432,30,30.001C62,48.568,48.568,62,32,62z"></path>
        <polygon points="45.191,24.222 43.777,22.808 28,38.586 20.222,30.808 18.808,32.223 27.778,41.191 28,40.971 28.222,41.191"></polygon>
    </symbol>

    <symbol id="shape-icon-2">
      <path d="M145.188,238.575l215.5-215.5c5.3-5.3,5.3-13.8,0-19.1s-13.8-5.3-19.1,0l-225.1,225.1c-5.3,5.3-5.3,13.8,0,19.1l225.1,225   c2.6,2.6,6.1,4,9.5,4s6.9-1.3,9.5-4c5.3-5.3,5.3-13.8,0-19.1L145.188,238.575z" fill="#FFFFFF"/>
    </symbol>

  </defs>
</svg>
